<svg width="21" height="22" viewBox="0 0 21 22" fill="none" xmlns="http://www.w3.org/2000/svg">
<g clip-path="url(#clip0)">
<path d="M6.33379 9C4.12476 9 2.33398 10.7908 2.33398 12.9998C2.33398 15.2088 4.12476 16.9996 6.33379 16.9996H11.6668C13.8759 16.9996 15.6666 15.2088 15.6666 12.9998C15.6666 10.7908 13.8759 9 11.6668 9H6.33379ZM15 12.9998C14.998 14.8398 13.5069 16.331 11.6668 16.333H6.33379C4.49294 16.333 3.00063 14.8406 3.00063 12.9998C3.00063 11.159 4.49294 9.66665 6.33379 9.66665H11.6668C13.5069 9.66864 14.998 11.1598 15 12.9998Z" fill="white" stroke="white" stroke-width="0.3"/>
<path d="M5.33423 11.334C4.5979 11.334 4.00098 11.9309 4.00098 12.6672C4.00098 13.4036 4.5979 14.0005 5.33423 14.0005C6.07057 14.0005 6.66749 13.4036 6.66749 12.6672C6.66749 11.9309 6.07057 11.334 5.33423 11.334ZM5.33423 13.3339C4.96605 13.3339 4.66759 13.0354 4.66759 12.6672C4.66759 12.2991 4.96605 12.0006 5.33423 12.0006C5.70242 12.0006 6.00088 12.2991 6.00088 12.6672C6.00084 13.0354 5.70238 13.3339 5.33423 13.3339Z" fill="white"/>
<path d="M12.6672 14.0005C13.4036 14.0005 14.0005 13.4036 14.0005 12.6672C14.0005 11.9309 13.4036 11.334 12.6672 11.334C11.9309 11.334 11.334 11.9309 11.334 12.6672C11.334 13.4036 11.9309 14.0005 12.6672 14.0005ZM12.6672 12.0006C13.0354 12.0006 13.3339 12.2991 13.3339 12.6672C13.3339 13.0354 13.0354 13.3339 12.6672 13.3339C12.2991 13.3339 12.0006 13.0354 12.0006 12.6672C12.0006 12.2991 12.2991 12.0006 12.6672 12.0006Z" fill="white"/>
<path d="M8.0003 8.33458H10.0002C10.1843 8.33458 10.3335 8.18537 10.3335 8.00127C10.3335 7.81718 10.1843 7.66797 10.0002 7.66797H8.0003C7.8162 7.66797 7.66699 7.81722 7.66699 8.00127C7.66699 8.18533 7.8162 8.33458 8.0003 8.33458Z" fill="white" stroke="white" stroke-width="0.5"/>
<path d="M8.66729 7.33458H9.33394C9.51803 7.33458 9.66725 7.18533 9.66725 7.00127C9.66725 6.81722 9.51799 6.66797 9.33394 6.66797H8.66729C8.4832 6.66797 8.33398 6.81718 8.33398 7.00127C8.33398 7.18537 8.4832 7.33458 8.66729 7.33458Z" fill="white" stroke="white" stroke-width="0.5"/>
<path d="M19.6667 0.00195312H13.0004C12.264 0.00195312 11.6671 0.598877 11.6671 1.33521V5.11737C10.8101 4.81785 9.9084 4.66602 9.00056 4.66841C7.03202 4.64805 5.12801 5.36966 3.6675 6.68963V5.27369C4.12665 5.11135 4.40207 4.64184 4.31973 4.16183C4.23739 3.68181 3.8212 3.33097 3.33419 3.33097C2.84718 3.33097 2.43099 3.68181 2.34865 4.16183C2.26631 4.64184 2.54173 5.11135 3.00089 5.27369V7.37359C1.67978 8.94827 0.969814 10.9461 1.00098 13.0013C1.00098 17.5804 3.76753 20.001 9.0006 20.001C14.2337 20.001 17.0002 17.5804 17.0002 13.0013C17.0172 11.3066 16.5364 9.64406 15.6176 8.21987L17.0925 7.33492H19.6668C20.4031 7.33492 21 6.73799 21 6.00166V1.33521C21 0.598877 20.4031 0.00195312 19.6667 0.00195312ZM3.33419 4.00176C3.51828 4.00176 3.6675 4.15101 3.6675 4.33506C3.6675 4.51915 3.51824 4.66837 3.33419 4.66837C3.15014 4.66837 3.00089 4.51912 3.00089 4.33506C3.00085 4.15097 3.1501 4.00176 3.33419 4.00176ZM16.3336 13.0013C16.3336 17.2035 13.867 19.3343 9.0006 19.3343C4.13419 19.3343 1.66759 17.2034 1.66759 13.0013C1.66759 8.63087 4.8201 5.33501 9.00056 5.33501C9.91278 5.33412 10.8171 5.50368 11.6671 5.83499V6.00166C11.6671 6.73799 12.264 7.33492 13.0004 7.33492H13.3337V8.41287C13.3353 8.78035 13.6328 9.07788 14.0003 9.07952C14.1212 9.07921 14.2398 9.04604 14.3433 8.98351L15.0459 8.56185C15.9029 9.8826 16.3508 11.427 16.3336 13.0013ZM20.3334 6.00166C20.3334 6.36985 20.0349 6.66831 19.6667 6.66831H17.0925C16.9717 6.66842 16.8532 6.70124 16.7495 6.7633L14.0003 8.41287V7.33492C14.0003 6.96673 13.7019 6.66827 13.3337 6.66827H13.0004C12.6322 6.66827 12.3337 6.36981 12.3337 6.00162V1.33521C12.3337 0.967023 12.6322 0.668561 13.0004 0.668561H19.6667C20.0349 0.668561 20.3334 0.967023 20.3334 1.33521V6.00166Z" fill="white" stroke="white" stroke-width="0.3"/>
<path d="M9.76745 14.4274C9.54883 14.5965 9.27678 14.6814 9.00081 14.6668C8.72493 14.6812 8.45299 14.5964 8.23417 14.4278C8.10132 14.3109 7.90036 14.3182 7.7763 14.4444C7.65225 14.5705 7.64842 14.7716 7.76751 14.9025C8.10863 15.1981 8.54978 15.3523 9.00077 15.3335C9.45259 15.3529 9.89468 15.1987 10.2364 14.9025C10.3648 14.7734 10.3648 14.5648 10.2364 14.4358C10.1084 14.306 9.90003 14.3023 9.76745 14.4274Z" fill="white"/>
<path d="M19.0004 2.00195H13.6673C13.4832 2.00195 13.334 2.1512 13.334 2.33526C13.334 2.51931 13.4832 2.66856 13.6673 2.66856H19.0004C19.1845 2.66856 19.3337 2.51931 19.3337 2.33526C19.3337 2.1512 19.1845 2.00195 19.0004 2.00195Z" fill="white"/>
<path d="M13.6673 4.00059H15.3339C15.518 4.00059 15.6672 3.85134 15.6672 3.66729C15.6672 3.4832 15.5179 3.33398 15.3339 3.33398H13.6673C13.4832 3.33398 13.334 3.48323 13.334 3.66729C13.334 3.85134 13.4832 4.00059 13.6673 4.00059Z" fill="white"/>
<path d="M18.0004 4.66797H13.6673C13.4832 4.66797 13.334 4.81722 13.334 5.00127C13.334 5.18536 13.4832 5.33458 13.6673 5.33458H18.0004C18.1845 5.33458 18.3337 5.18533 18.3337 5.00127C18.3337 4.81722 18.1845 4.66797 18.0004 4.66797Z" fill="white"/>
</g>
<defs>
<clipPath id="clip0">
<rect width="21" height="22" fill="white"/>
</clipPath>
</defs>
</svg>
