<svg width="20" height="20" viewBox="0 0 20 20" fill="none" xmlns="http://www.w3.org/2000/svg">
<g clip-path="url(#clip0)">
<path d="M13.2578 10.1027L20.0003 14.3652V5.66016L13.2578 10.1027Z" fill="#3FAD3D"/>
<path d="M0 5.66016V14.3652L6.7425 10.1027L0 5.66016Z" fill="#3FAD3D"/>
<path d="M18.7506 3.125H1.25059C0.626836 3.125 0.131836 3.59 0.0380859 4.18875L10.0006 10.7525L19.9631 4.18875C19.8693 3.59 19.3743 3.125 18.7506 3.125Z" fill="#3FAD3D"/>
<path d="M12.1125 10.8587L10.3438 12.0237C10.2388 12.0924 10.12 12.1262 10 12.1262C9.88004 12.1262 9.76129 12.0924 9.65629 12.0237L7.88754 10.8574L0.0400391 15.8212C0.136289 16.4149 0.628789 16.8762 1.25004 16.8762H18.75C19.3713 16.8762 19.8638 16.4149 19.96 15.8212L12.1125 10.8587Z" fill="#3FAD3D"/>
</g>
<defs>
<clipPath id="clip0">
<rect width="20" height="20" fill="white"/>
</clipPath>
</defs>
</svg>
