<svg width="36" height="32" fill="none" xmlns="http://www.w3.org/2000/svg"><path d="M33.829 29.791V20.85c1.123-.863 1.84-2.162 1.84-3.612V15.12L19.355 6.75V5.541h5.872V.333h-7.906v6.415L.982 15.118v2.119c0 1.46.727 2.768 1.865 3.63v8.924H.983v1.875h34.71v-1.875h-1.864zM19.355 2.208h3.839v1.459h-3.84V2.208zM32.717 15.75h-5.525l-5.058-5.43 10.583 5.43zm-13.374-5.549l5.168 5.55h-5.168V10.2zm6.1 7.424c-.206 1.375-1.489 2.437-3.036 2.437s-2.83-1.062-3.035-2.437h6.071zM12.16 15.75l5.149-5.543v5.543h-5.15zm5.12 1.875c-.206 1.375-1.489 2.437-3.036 2.437s-2.83-1.062-3.036-2.437h6.072zm-2.763-7.295l-5.035 5.42H3.937l10.58-5.42zM3.045 17.625h6.072C8.91 19 7.627 20.062 6.08 20.062S3.25 19 3.044 17.625zm6.18 12.166H4.88v-7.987c.386.087.787.133 1.2.133 1.669 0 3.152-.742 4.082-1.886.931 1.144 2.414 1.886 4.082 1.886a5.376 5.376 0 002.85-.805 10.546 10.546 0 01-1.283 3.24c-.988 1.64-2.423 3.03-4.15 4.021l-2.436 1.398zm3.837 0c1.874-1.143 3.435-2.695 4.527-4.508.283-.47.532-.954.749-1.45.216.496.466.98.749 1.45 1.092 1.813 2.653 3.365 4.527 4.508H13.062zm18.733 0h-4.344l-2.437-1.398c-1.727-.99-3.162-2.381-4.15-4.02a10.549 10.549 0 01-1.28-3.224c.81.497 1.78.788 2.823.788 1.668 0 3.151-.742 4.082-1.886.93 1.144 2.414 1.886 4.081 1.886.423 0 .832-.048 1.225-.138v7.992zm-1.225-9.729c-1.547 0-2.83-1.062-3.035-2.437h6.071c-.205 1.375-1.488 2.437-3.036 2.437z" fill="#2D9CDB"/></svg>