<svg width="36" height="32" fill="none" xmlns="http://www.w3.org/2000/svg"><g clip-path="url(#clip0)" fill="#2D9CDB"><path d="M18.27 29.156c1.235 0 2.236-.923 2.236-2.062 0-1.14-1.001-2.063-2.237-2.063-1.235 0-2.237.924-2.237 2.063 0 1.139 1.002 2.062 2.237 2.062zm6.654-9.138c-1.764-1.61-4.293-2.612-6.599-2.612h-.099c-2.307 0-4.836 1.001-6.6 2.612a1.182 1.182 0 00-.009 1.768c.265.247.614.37.963.37.345 0 .69-.12.955-.362 1.255-1.147 3.096-1.888 4.69-1.888h.099c1.595 0 3.436.741 4.691 1.888.532.486 1.39.483 1.918-.008a1.182 1.182 0 00-.01-1.768zM35.328 9.679c-4.456-4.408-10.49-6.835-16.99-6.835-6.502 0-12.536 2.427-16.992 6.835-.51.505-.48 1.296.068 1.767.548.47 1.406.443 1.916-.063 3.938-3.894 9.267-6.04 15.008-6.04 5.74 0 11.07 2.146 15.007 6.04.267.265.629.398.992.398.33 0 .663-.11.924-.335a1.182 1.182 0 00.067-1.767z"/><path d="M30.35 14.841c-3.295-3.06-7.56-4.744-12.013-4.744-4.454 0-8.72 1.685-12.013 4.744a1.182 1.182 0 00.008 1.768c.531.486 1.39.483 1.917-.007 2.78-2.583 6.362-4.005 10.088-4.005 3.724 0 7.307 1.422 10.087 4.005.266.246.614.37.963.37.345 0 .69-.121.955-.363a1.182 1.182 0 00.007-1.768z"/></g><defs><clipPath id="clip0"><path fill="#fff" transform="translate(.982)" d="M0 0h34.71v32H0z"/></clipPath></defs></svg>