<svg width="17" height="17" viewBox="0 0 17 17" fill="none" xmlns="http://www.w3.org/2000/svg">
<path d="M8.5 0C3.81103 0 0 3.81103 0 8.5C0 13.189 3.81103 17 8.5 17C13.189 17 17 13.189 17 8.5C17 3.81103 13.189 0 8.5 0ZM8.5 16.142C4.28991 16.142 0.857981 12.7101 0.857981 8.5C0.857981 4.28991 4.28991 0.857981 8.5 0.857981C12.7101 0.857981 16.142 4.28991 16.142 8.5C16.142 12.7101 12.7101 16.142 8.5 16.142Z" fill="black"/>
<path d="M9.09814 8.46049L11.5923 5.96636C11.7519 5.80673 11.7519 5.52739 11.5923 5.36777C11.4326 5.20814 11.1533 5.20814 10.9937 5.36777L8.49955 7.8619L6.00542 5.36777C5.84579 5.20814 5.56645 5.20814 5.40683 5.36777C5.2472 5.52739 5.2472 5.80673 5.40683 5.96636L7.90096 8.46049L5.40683 10.9347C5.2472 11.0943 5.2472 11.3736 5.40683 11.5333C5.48664 11.6131 5.60636 11.653 5.70612 11.653C5.80589 11.653 5.92561 11.6131 6.00542 11.5333L8.49955 9.03913L10.9937 11.5333C11.0735 11.6131 11.1932 11.653 11.293 11.653C11.3927 11.653 11.5125 11.6131 11.5923 11.5333C11.7519 11.3736 11.7519 11.0943 11.5923 10.9347L9.09814 8.46049Z" fill="black"/>
</svg>
