<svg width="133" height="49" viewBox="0 0 133 49" fill="none" xmlns="http://www.w3.org/2000/svg">
<path d="M12.835 45.6542C12.0453 45.8571 11.5711 46.6565 11.7755 47.4396C11.9801 48.2227 12.7864 48.6929 13.5761 48.4903C21.9645 46.334 30.5565 44.6868 39.3148 43.5848C47.8929 42.5057 56.6656 41.9492 65.6004 41.9492C74.648 41.9492 83.6439 42.5232 92.5378 43.6713C101.415 44.8173 110.226 46.5366 118.92 48.8293C119.71 49.0353 120.519 48.5675 120.727 47.7846C120.934 47.0015 120.463 46.1993 119.673 45.9933C110.874 43.6731 101.939 41.9305 92.92 40.7663C83.848 39.5951 74.7243 39.0096 65.6003 39.0096C56.6005 39.0096 47.7032 39.5778 38.9441 40.6798C30.0515 41.7988 21.3363 43.469 12.835 45.6542L12.835 45.6542ZM119.413 37.764C119.55 37.764 119.682 37.7858 119.806 37.8263L119.859 37.6739L119.942 37.4894L120.052 37.3657C120.138 37.2684 120.239 37.2146 120.356 37.2053C120.471 37.1945 120.581 37.2163 120.683 37.2718L120.74 37.3209L120.796 37.37L120.866 37.4306L120.936 37.4921L120.994 37.5804C121.042 37.648 121.067 37.737 121.068 37.8491C121.065 37.8976 121.055 37.9475 121.034 37.9971C121.015 38.0476 120.979 38.1026 120.929 38.1596L120.828 38.2736L120.661 38.3705L120.53 38.4348C120.606 38.5789 120.655 38.7397 120.669 38.9101L120.708 38.9113L120.921 38.9447C120.976 38.9593 121.045 38.9864 121.129 39.0257L121.172 39.0636L121.216 39.101L121.288 39.1637C121.369 39.2348 121.413 39.3485 121.419 39.5039C121.42 39.58 121.41 39.649 121.387 39.7133C121.363 39.7776 121.322 39.8442 121.258 39.9155C121.162 40.0237 121.04 40.073 120.891 40.0645C120.742 40.0549 120.6 39.9922 120.465 39.8752L120.393 39.8127L120.387 39.8072C120.251 39.9718 120.073 40.1013 119.869 40.1797L119.895 40.3321L119.892 40.4936L119.816 40.7079L119.704 40.863C119.64 40.9355 119.554 40.9725 119.446 40.975C119.336 40.9788 119.224 40.9542 119.108 40.9035L119.023 40.8551L118.951 40.7924L118.879 40.7297L118.8 40.6609L118.752 40.5426C118.74 40.4795 118.735 40.4036 118.739 40.3126L118.814 40.1141C118.631 40.0166 118.477 39.8756 118.362 39.7054C118.293 39.7453 118.231 39.7744 118.173 39.7937C118.095 39.82 118.013 39.8289 117.925 39.8218L117.801 39.7893L117.722 39.7204L117.65 39.6578L117.564 39.5824L117.494 39.4591C117.454 39.3899 117.426 39.3021 117.411 39.1944C117.395 39.0876 117.419 38.999 117.483 38.9264L117.54 38.8622L117.617 38.8034C117.69 38.7493 117.767 38.7108 117.845 38.6902C117.923 38.6697 118.032 38.666 118.174 38.6784L118.197 38.6819C118.252 38.4826 118.356 38.3033 118.495 38.1573L118.431 38.1015L118.395 38.07L118.366 38.0448C118.232 37.9279 118.151 37.7984 118.123 37.6578C118.096 37.5161 118.132 37.3897 118.232 37.2767C118.34 37.1542 118.469 37.0809 118.616 37.0593C118.762 37.0377 118.884 37.0681 118.98 37.1517L119.052 37.2142L119.095 37.2519L119.138 37.2894C119.187 37.349 119.223 37.4139 119.246 37.4842L119.306 37.6891L119.319 37.7675C119.35 37.7653 119.381 37.764 119.413 37.764ZM12.8033 38.31C12.9407 38.31 13.0729 38.332 13.1968 38.3723L13.2499 38.2202L13.3328 38.0356L13.4426 37.912C13.5288 37.8145 13.6293 37.7608 13.746 37.7514C13.8618 37.7406 13.972 37.7626 14.0739 37.818L14.1302 37.867L14.1865 37.9161L14.2561 37.9768L14.3266 38.0384L14.3845 38.1264C14.4329 38.194 14.4579 38.2833 14.4585 38.3953C14.4559 38.4437 14.4454 38.4936 14.425 38.5433C14.4057 38.5938 14.3695 38.6487 14.3191 38.7057L14.218 38.8197L14.0513 38.9168L13.9205 38.9811C13.9966 39.1252 14.0452 39.2858 14.0594 39.4562L14.0989 39.4574L14.3112 39.491C14.3663 39.5055 14.4359 39.5324 14.5199 39.5719L14.5629 39.6097L14.6061 39.647L14.6781 39.7097C14.7596 39.7809 14.8032 39.8947 14.8099 40.05C14.8103 40.1263 14.8 40.1953 14.777 40.2595C14.7538 40.3238 14.712 40.3904 14.6487 40.4618C14.553 40.5697 14.4305 40.619 14.281 40.6106C14.1322 40.6012 13.9901 40.5385 13.8559 40.4213L13.7839 40.3588L13.7778 40.3533C13.6412 40.518 13.463 40.6475 13.2594 40.726L13.2852 40.8781L13.282 41.0399L13.2067 41.254L13.0947 41.4092C13.0305 41.4818 12.9444 41.5185 12.8364 41.5211C12.7268 41.5248 12.6146 41.5004 12.498 41.4495L12.4136 41.4012L12.3418 41.3385L12.2697 41.2758L12.1908 41.207L12.1424 41.0888C12.1305 41.0257 12.1254 40.9497 12.1299 40.8589L12.2041 40.6603C12.0219 40.5626 11.8671 40.4217 11.7529 40.2515C11.6839 40.2914 11.6211 40.3207 11.5636 40.3399C11.4851 40.3661 11.4031 40.3749 11.3156 40.3678L11.1916 40.3356L11.1123 40.2666L11.0405 40.2041L10.9541 40.1286L10.8849 40.0054C10.8447 39.9362 10.8161 39.8481 10.8013 39.7404C10.7852 39.6339 10.809 39.545 10.8732 39.4725L10.9303 39.4082L11.0076 39.3494C11.081 39.2956 11.1577 39.2571 11.2356 39.2364C11.3135 39.2158 11.4229 39.212 11.5648 39.2244L11.5876 39.228C11.6429 39.0286 11.7466 38.8496 11.8853 38.7033L11.8213 38.6475L11.7854 38.6163L11.7567 38.5911C11.6225 38.4741 11.5418 38.3446 11.5137 38.2041C11.4861 38.0621 11.522 37.9358 11.6221 37.8229C11.7307 37.7005 11.8592 37.6271 12.0061 37.6053C12.1527 37.5839 12.2744 37.6142 12.3702 37.6979L12.4421 37.7604L12.4854 37.798L12.5286 37.8357C12.5775 37.8953 12.6136 37.9601 12.636 38.0305L12.6969 38.2351L12.7095 38.3135C12.7407 38.3114 12.7718 38.31 12.8033 38.31H12.8033ZM18.5168 40.4227L20.1599 40.2342C20.2321 40.4142 20.324 40.5276 20.4362 40.5754C20.5938 40.6428 20.8146 40.6436 21.0993 40.5758C21.4636 40.4889 21.7235 40.3702 21.8799 40.2177C21.9845 40.1162 22.0499 39.9779 22.0733 39.8017C22.088 39.6775 22.0583 39.4587 21.9839 39.1513L21.8055 38.3849C21.5233 39.0548 21.0632 39.4646 20.4261 39.6164C19.7177 39.7848 19.083 39.6215 18.526 39.1269C18.0869 38.7354 17.7828 38.1891 17.6137 37.4919C17.4013 36.6146 17.453 35.8948 17.7666 35.3315C18.0798 34.7681 18.5543 34.4098 19.188 34.2588C19.8406 34.1035 20.4479 34.259 21.0093 34.7263L20.8297 33.9854L22.1314 33.6754L23.2676 38.3674C23.4169 38.9842 23.4777 39.4583 23.4482 39.7872C23.4204 40.1174 23.3342 40.3902 23.1901 40.6092C23.0474 40.8264 22.8331 41.0232 22.5467 41.1944C22.2606 41.3676 21.8811 41.5095 21.4081 41.6221C20.5133 41.835 19.8425 41.833 19.3944 41.6182C18.9458 41.4014 18.6663 41.0609 18.5527 40.5921C18.5416 40.5465 18.5293 40.4891 18.5168 40.4227H18.5168ZM19.0279 37.0697C19.1623 37.6244 19.3686 38.0036 19.6461 38.2096C19.9252 38.415 20.2245 38.4806 20.5415 38.4052C20.8804 38.3244 21.1363 38.1229 21.3062 37.8035C21.4779 37.4835 21.5005 37.066 21.3752 36.5484C21.2442 36.0071 21.035 35.632 20.7462 35.4235C20.459 35.2147 20.1427 35.1514 19.7985 35.2332C19.4647 35.3128 19.2213 35.5076 19.0667 35.8164C18.9137 36.1246 18.9002 36.5421 19.0279 37.0697ZM26.0207 38.3865L24.6153 38.6611L23.5663 33.3806L24.8693 33.126L25.0181 33.8753C25.1715 33.4775 25.3273 33.2056 25.4849 33.0602C25.6425 32.9149 25.8354 32.821 26.0627 32.7767C26.3845 32.7138 26.7111 32.7415 27.0435 32.8579L26.8493 34.1607C26.5813 34.0546 26.3456 34.0214 26.1422 34.0613C25.9436 34.1 25.787 34.1869 25.6717 34.3205C25.5561 34.4556 25.4867 34.67 25.4641 34.9668C25.4413 35.2639 25.5192 35.8614 25.6974 36.7585L26.0207 38.3865V38.3865ZM27.7542 35.1856C27.6747 34.7186 27.7127 34.2478 27.8701 33.7725C28.0275 33.2959 28.2989 32.9084 28.6842 32.6071C29.0694 32.306 29.5223 32.1108 30.0464 32.0227C30.8557 31.8869 31.5616 32.0367 32.168 32.4713C32.7745 32.908 33.1444 33.5223 33.2806 34.32C33.4178 35.1241 33.2703 35.8343 32.8397 36.4499C32.4072 37.066 31.7959 37.44 31.0036 37.5731C30.5142 37.6553 30.0278 37.6228 29.5453 37.4776C29.0642 37.3323 28.6707 37.067 28.3661 36.6797C28.0618 36.2945 27.8582 35.7958 27.7542 35.1856L27.7542 35.1856ZM29.2208 35.0168C29.3106 35.5432 29.5049 35.9259 29.8036 36.1635C30.1041 36.4022 30.4371 36.4902 30.8068 36.4281C31.1743 36.3664 31.4599 36.1749 31.6611 35.852C31.8627 35.5306 31.9186 35.1023 31.8276 34.5688C31.739 34.0491 31.5452 33.6699 31.2482 33.4319C30.9511 33.1927 30.6181 33.1048 30.2504 33.1667C29.8807 33.2286 29.5954 33.4203 29.3905 33.7438C29.1875 34.0654 29.1308 34.4902 29.2208 35.0168V35.0168ZM38.2748 36.2571L38.1491 35.4614C37.9973 35.7753 37.7763 36.0407 37.4845 36.2591C37.1923 36.4761 36.8698 36.6119 36.517 36.6665C36.1552 36.7228 35.8192 36.6944 35.5084 36.5818C35.196 36.4692 34.9546 36.2795 34.7823 36.0159C34.6081 35.7507 34.4822 35.368 34.4029 34.866L33.8705 31.4938L35.2858 31.2738L35.6725 33.7222C35.7909 34.4719 35.889 34.9256 35.9691 35.0864C36.0474 35.2473 36.1633 35.3674 36.3183 35.4431C36.4716 35.5208 36.6553 35.543 36.8686 35.51C37.1116 35.4722 37.3178 35.372 37.49 35.2106C37.6621 35.0488 37.7669 34.8648 37.8068 34.6575C37.846 34.4501 37.8068 33.9663 37.6863 33.2033L37.3312 30.9562L38.7467 30.7362L39.5866 36.0535L38.2748 36.2571V36.2571ZM40.2715 30.5738L41.6011 30.4211L41.6929 31.206C41.8348 30.9182 42.0412 30.6751 42.3163 30.475C42.5913 30.2762 42.909 30.1563 43.2672 30.1153C43.8922 30.0435 44.4522 30.2261 44.9455 30.6639C45.4385 31.0996 45.7358 31.7546 45.8373 32.623C45.9418 33.5176 45.8028 34.2364 45.4211 34.7829C45.0393 35.3297 44.535 35.6381 43.908 35.7101C43.6103 35.7443 43.3334 35.7169 43.0771 35.6263C42.8228 35.5373 42.5433 35.3657 42.2434 35.1113L42.5556 37.786L41.1323 37.9495L40.2715 30.5738V30.5738ZM41.9762 33.0038C42.0465 33.6062 42.2182 34.0373 42.4923 34.2979C42.7647 34.5572 43.0739 34.6679 43.4168 34.6286C43.7477 34.5906 44.0073 34.4269 44.1964 34.1371C44.3854 33.8474 44.444 33.4024 44.3737 32.7997C44.3078 32.2368 44.1469 31.8322 43.888 31.5854C43.6311 31.3383 43.3348 31.2349 43.0006 31.2732C42.6527 31.3131 42.3792 31.4804 42.1819 31.7743C41.9829 32.0687 41.9149 32.4783 41.9762 33.0038ZM49.5373 32.2464C49.5044 31.7739 49.5891 31.3092 49.7924 30.8516C49.9964 30.3924 50.3048 30.0331 50.7181 29.7709C51.1312 29.5086 51.6012 29.3583 52.1315 29.3219C52.9505 29.2653 53.6381 29.4831 54.1985 29.9745C54.7589 30.4681 55.0663 31.1156 55.1228 31.9225C55.1797 32.736 54.9627 33.4285 54.4733 33.9994C53.9823 34.5704 53.3368 34.8833 52.5352 34.9383C52.0399 34.9723 51.559 34.8931 51.093 34.7017C50.6287 34.51 50.2636 34.2077 49.9986 33.7928C49.7338 33.3796 49.5807 32.8636 49.5373 32.2464L49.5373 32.2464ZM51.0137 32.2208C51.051 32.7537 51.2066 33.1535 51.4801 33.4191C51.7556 33.6856 52.0785 33.8057 52.4524 33.7798C52.8244 33.754 53.1275 33.5913 53.3596 33.2896C53.592 32.9892 53.6901 32.5686 53.6524 32.0288C53.6153 31.503 53.4601 31.1067 53.1882 30.8412C52.916 30.574 52.5933 30.4543 52.2215 30.4799C51.8474 30.5056 51.5443 30.6686 51.3086 30.9707C51.0747 31.2708 50.9764 31.6884 51.0137 32.2208ZM55.4685 29.2075L56.2626 29.1749L56.2456 28.769C56.2265 28.3167 56.261 27.976 56.3492 27.7492C56.4372 27.521 56.6091 27.3323 56.8644 27.1813C57.1215 27.0306 57.4492 26.9464 57.8498 26.9299C58.2589 26.9128 58.6639 26.9565 59.0625 27.0614L58.9211 28.0564C58.6855 28.0126 58.4595 27.9943 58.2438 28.0032C58.0313 28.012 57.8817 28.0667 57.7937 28.1673C57.7053 28.2677 57.6662 28.456 57.6777 28.7324L57.6938 29.1157L58.7701 29.0711L58.8171 30.1901L57.7407 30.2346L57.9199 34.4929L56.4886 34.5521L56.3096 30.2937L55.5155 30.3266L55.4685 29.2075H55.4685ZM67.2419 30.4946L65.8351 30.7706C65.7826 30.4932 65.6706 30.2861 65.4985 30.1479C65.3269 30.0113 65.1076 29.9444 64.8394 29.9495C64.4821 29.9564 64.1988 30.0846 63.9911 30.3342C63.7831 30.5835 63.685 30.9949 63.6959 31.5704C63.7084 32.2096 63.8253 32.6586 64.0466 32.919C64.268 33.1791 64.5596 33.3049 64.9219 33.2978C65.1939 33.2929 65.4155 33.2107 65.5848 33.0535C65.756 32.8964 65.8732 32.6299 65.9372 32.2517L67.3533 32.4634C67.2193 33.1087 66.9483 33.5999 66.5398 33.9361C66.1317 34.2722 65.579 34.4471 64.8801 34.4605C64.089 34.4756 63.4515 34.239 62.9716 33.7519C62.4895 33.2634 62.2412 32.5804 62.2239 31.7005C62.2065 30.8105 62.4301 30.115 62.8925 29.6099C63.3552 29.1051 63.9899 28.8456 64.7964 28.8301C65.4553 28.8175 65.9826 28.9492 66.3784 29.2234C66.7725 29.4976 67.0595 29.9208 67.2419 30.4946L67.2419 30.4946ZM68.0183 31.5346C68.0292 31.0611 68.1565 30.6059 68.4021 30.1689C68.6477 29.7304 68.9882 29.4009 69.4239 29.1776C69.8596 28.9541 70.3417 28.8476 70.8731 28.8598C71.6939 28.8785 72.3584 29.158 72.8706 29.6989C73.3828 30.2412 73.6286 30.9143 73.6098 31.7227C73.5909 32.5381 73.3106 33.208 72.7701 33.7314C72.2278 34.2551 71.5562 34.5077 70.7528 34.4894C70.2564 34.478 69.7849 34.3549 69.3389 34.1218C68.8945 33.8885 68.5589 33.5539 68.3337 33.1166C68.1085 32.681 68.0039 32.1532 68.0183 31.5346V31.5346ZM69.4905 31.6443C69.478 32.1782 69.5958 32.5906 69.8436 32.8799C70.0931 33.1706 70.4035 33.3194 70.7782 33.3281C71.151 33.3365 71.4678 33.2021 71.7271 32.9228C71.9863 32.6452 72.1231 32.2352 72.1358 31.6942C72.1481 31.1675 72.0299 30.7584 71.7839 30.4693C71.5379 30.1783 71.2277 30.0295 70.8549 30.0213C70.48 30.0126 70.1633 30.1471 69.9004 30.4262C69.6396 30.704 69.503 31.1106 69.4905 31.6443H69.4905ZM74.8677 29.0151L76.1813 29.1136L76.1256 29.8458C76.6394 29.3178 77.2224 29.077 77.8739 29.1259C78.22 29.1519 78.5152 29.2451 78.7582 29.4053C79.003 29.5659 79.1953 29.795 79.335 30.0932C79.5947 29.8251 79.8684 29.6307 80.1539 29.51C80.4391 29.3891 80.7382 29.3404 81.0512 29.3638C81.4473 29.3935 81.7769 29.498 82.0409 29.6789C82.3032 29.8597 82.4905 30.1095 82.6023 30.4298C82.6842 30.6646 82.7046 31.0389 82.6655 31.5508L82.4047 34.9767L80.9761 34.8699L81.2092 31.8075C81.2498 31.275 81.2272 30.928 81.14 30.7676C81.0231 30.556 80.8256 30.4388 80.5513 30.4182C80.3515 30.4034 80.1574 30.4496 79.9711 30.5567C79.786 30.6662 79.644 30.8339 79.5479 31.0607C79.4522 31.2893 79.3857 31.6551 79.3473 32.1601L79.1513 34.7331L77.7227 34.6262L77.9463 31.6897C77.9859 31.1692 77.9855 30.8294 77.9467 30.6755C77.9078 30.5202 77.8382 30.4007 77.736 30.3185C77.6357 30.2363 77.4925 30.1892 77.31 30.1756C77.0892 30.1589 76.8866 30.2029 76.7022 30.3069C76.5161 30.4123 76.3779 30.5721 76.2848 30.7887C76.1912 31.0051 76.1246 31.3713 76.0858 31.8849L75.8873 34.4888L74.459 34.3819L74.8677 29.0151L74.8677 29.0151ZM84.2919 29.686L85.622 29.8351L85.5326 30.6202C85.7362 30.3718 85.9927 30.1813 86.3065 30.0478C86.6197 29.9159 86.9564 29.8703 87.3148 29.9106C87.9398 29.9808 88.4439 30.2841 88.8247 30.8211C89.2054 31.3562 89.346 32.0608 89.2467 32.9295C89.1446 33.8242 88.8453 34.4933 88.3489 34.9403C87.8524 35.3873 87.2908 35.5746 86.6638 35.5042C86.3659 35.4708 86.1025 35.3822 85.8733 35.2363C85.646 35.0924 85.4127 34.8629 85.1786 34.548L84.8731 37.2234L83.4495 37.0638L84.2919 29.686V29.686ZM85.3988 32.4349C85.33 33.0378 85.3988 33.4959 85.6065 33.8112C85.8127 34.1251 86.089 34.3022 86.4317 34.3406C86.7628 34.3779 87.053 34.2765 87.3031 34.0369C87.5533 33.7969 87.7119 33.3764 87.7806 32.7738C87.8451 32.2104 87.7802 31.7803 87.5844 31.4819C87.3905 31.1836 87.1253 31.0163 86.7911 30.9789C86.443 30.9398 86.1384 31.0412 85.8793 31.2836C85.6184 31.5256 85.4589 31.9095 85.3988 32.4349V32.4349ZM91.481 32.1558L90.2227 31.7699C90.4338 31.2665 90.7331 30.9117 91.1193 30.7053C91.5054 30.4989 92.0485 30.439 92.7473 30.5257C93.3818 30.6045 93.8466 30.7368 94.1388 30.9249C94.4298 31.1124 94.6256 31.328 94.7228 31.5736C94.8203 31.8191 94.8312 32.247 94.7539 32.861L94.5253 34.5047C94.4665 34.9729 94.4454 35.3222 94.4621 35.5506C94.4791 35.7792 94.5337 36.0283 94.6264 36.2974L93.2151 36.1224C93.1905 36.0253 93.1612 35.8822 93.1303 35.6937C93.1186 35.6071 93.1079 35.55 93.1009 35.5231C92.8292 35.7299 92.5473 35.8742 92.2559 35.9583C91.9641 36.0422 91.6624 36.0658 91.3496 36.0271C90.7976 35.9587 90.3809 35.7555 90.1002 35.4176C89.8192 35.0814 89.7078 34.6846 89.7653 34.2284C89.8033 33.9284 89.9098 33.6679 90.0848 33.4492C90.2596 33.2326 90.485 33.0757 90.7639 32.9829C91.0404 32.8901 91.4313 32.8272 91.9364 32.794C92.6159 32.7529 93.0924 32.6934 93.3616 32.6187L93.3794 32.4764C93.4141 32.2022 93.3713 31.9981 93.2514 31.8631C93.1295 31.7296 92.8809 31.6394 92.5057 31.593C92.2513 31.5616 92.048 31.5867 91.8934 31.6703C91.7374 31.7522 91.601 31.9146 91.4811 32.1558L91.481 32.1558ZM93.246 33.5347C93.0569 33.572 92.7592 33.6084 92.3526 33.6432C91.9477 33.6786 91.6779 33.7285 91.5471 33.7926C91.3453 33.9015 91.2311 34.0548 91.2059 34.2555C91.1807 34.4542 91.2335 34.6333 91.3641 34.7956C91.4947 34.9584 91.6743 35.0535 91.9043 35.0822C92.16 35.1139 92.4163 35.0602 92.6706 34.9228C92.8583 34.8155 92.9919 34.6751 93.0688 34.4968C93.1201 34.3811 93.1681 34.1535 93.2107 33.8158L93.246 33.5347ZM100.474 37.28L99.0612 37.0414L99.5259 34.3374C99.6244 33.765 99.6569 33.3902 99.6258 33.2131C99.5927 33.034 99.5169 32.888 99.3956 32.771C99.2743 32.6541 99.1173 32.5802 98.9249 32.5475C98.6775 32.5059 98.4444 32.5347 98.2257 32.6346C98.0055 32.7341 97.8408 32.8888 97.7312 33.0946C97.6196 33.3017 97.5137 33.7012 97.412 34.2942L96.9995 36.6931L95.5872 36.4542L96.499 31.149L97.8085 31.3703L97.6747 32.1487C98.2455 31.6335 98.8858 31.4367 99.599 31.5572C99.9118 31.6099 100.189 31.7147 100.429 31.8692C100.671 32.0256 100.843 32.2004 100.945 32.3948C101.05 32.5914 101.109 32.8027 101.122 33.0315C101.138 33.2601 101.11 33.5779 101.04 33.987L100.474 37.28V37.28ZM102.998 31.4932L103.257 30.2013L104.663 30.4791L104.403 31.7707L102.998 31.4932ZM101.794 37.4831L102.855 32.2049L104.26 32.4825L103.199 37.7608L101.794 37.4831V37.4831ZM107.97 36.985L109.318 37.5216C109.027 37.9908 108.657 38.3159 108.212 38.4987C107.765 38.6795 107.25 38.7077 106.67 38.5817C105.749 38.3818 105.132 37.9348 104.823 37.2415C104.58 36.6862 104.537 36.0438 104.699 35.3126C104.891 34.4416 105.272 33.8077 105.838 33.414C106.406 33.0187 107.041 32.8982 107.742 33.0503C108.529 33.2211 109.093 33.6143 109.436 34.2299C109.776 34.8452 109.819 35.6843 109.563 36.7469L106.06 35.9866C105.979 36.4008 106.021 36.7459 106.186 37.0223C106.35 37.2987 106.593 37.4716 106.914 37.541C107.133 37.5888 107.33 37.5697 107.504 37.4834C107.68 37.3981 107.835 37.2314 107.97 36.985L107.97 36.985ZM108.362 35.5945C108.441 35.1888 108.405 34.8589 108.252 34.6065C108.099 34.352 107.88 34.1947 107.594 34.1328C107.29 34.0666 107.013 34.1236 106.765 34.3015C106.517 34.4794 106.353 34.7606 106.273 35.1412L108.362 35.5945ZM109.983 37.5745L111.436 37.7079C111.428 37.989 111.498 38.2217 111.646 38.4044C111.792 38.5881 112.03 38.7196 112.357 38.8C112.717 38.8885 113.004 38.8897 113.22 38.804C113.365 38.7419 113.456 38.6326 113.495 38.4783C113.521 38.3741 113.509 38.2787 113.461 38.1936C113.407 38.1111 113.268 38.0108 113.041 37.8964C111.978 37.3728 111.322 36.9728 111.072 36.6956C110.725 36.3096 110.615 35.8655 110.741 35.3641C110.855 34.9094 111.131 34.5733 111.568 34.3534C112.006 34.1332 112.603 34.1167 113.359 34.3026C114.079 34.4799 114.586 34.7294 114.878 35.0488C115.169 35.3698 115.325 35.7749 115.342 36.2653L113.972 36.1846C113.968 35.9664 113.899 35.782 113.769 35.634C113.639 35.4864 113.427 35.3773 113.135 35.3053C112.766 35.2147 112.49 35.1998 112.303 35.2627C112.179 35.3085 112.103 35.3894 112.074 35.5035C112.049 35.6027 112.074 35.6977 112.15 35.7895C112.254 35.9129 112.656 36.149 113.358 36.5C114.06 36.8509 114.529 37.1835 114.762 37.4992C114.993 37.816 115.053 38.1958 114.943 38.6351C114.823 39.1134 114.518 39.4764 114.028 39.7207C113.539 39.9655 112.899 39.9912 112.108 39.7964C111.39 39.6197 110.858 39.3355 110.511 38.9453C110.164 38.5557 109.988 38.0993 109.983 37.5745H109.983ZM4.98663 32.337L5.12003 32.301C5.44551 32.213 5.70141 32.0886 5.88794 31.928C6.07427 31.7674 6.22452 31.4904 6.33909 31.0967L6.45604 30.5685L6.54683 29.8583L8.19643 14.2558L8.41824 14.1955L8.95106 14.0518L19.346 27.3216L19.3864 27.3816C19.611 27.6204 19.8311 27.8132 20.0463 27.9599C20.2909 28.0986 20.5982 28.1181 20.9681 28.0183L21.2103 28.6384L20.9883 28.6984L13.5082 30.7198L13.3326 30.0816L14.0208 29.8956C14.7015 29.7117 15.0979 29.506 15.2103 29.2786C15.3227 29.0514 15.3485 28.8273 15.288 28.6074C15.2519 28.4753 15.2129 28.3911 15.1711 28.3552L15.044 28.1531L14.9816 28.0992L13.0007 25.4895L8.14333 26.8021L7.8567 29.5045L7.83628 29.6043L7.84441 29.7203L7.84243 29.8864L7.84639 30.0747L7.86245 30.3066L7.89495 30.5109C7.99962 30.8922 8.24026 31.1031 8.61688 31.143C8.77724 31.1472 8.96674 31.1432 9.18597 31.1312C9.4052 31.119 9.60362 31.0894 9.78123 31.0414L9.91444 31.0052L10.0474 30.9695L10.1364 30.9453L10.3119 31.5835L10.0901 31.6435L5.16227 32.9754L4.98664 32.337L4.98663 32.337ZM8.2894 25.6277L12.3553 24.5289L8.82877 20.0985L8.2894 25.6277H8.2894ZM36.4506 24.9637C35.5063 25.7594 34.5122 26.3393 33.4668 26.6962C32.4213 27.0534 31.4366 27.3046 30.5127 27.4502L30.2853 27.4858C27.574 27.9125 25.3724 27.3777 23.6808 25.8809C21.9891 24.384 20.9556 22.4638 20.5806 20.1205C20.1933 17.7022 20.5949 15.5294 21.785 13.6017C22.9747 11.6744 24.8649 10.5066 27.4551 10.0987L27.6823 10.0631C28.5911 9.92005 29.2704 9.87091 29.7202 9.91533C30.17 9.96034 30.5747 10.0388 30.9343 10.1518L31.2588 10.2855L31.5793 10.3967L31.9908 10.4934L32.4824 10.5086C32.6592 10.45 32.8008 10.3159 32.9074 10.1068C33.0134 9.89764 33.0592 9.60162 33.0446 9.2189L33.2717 9.18313L33.908 9.08288L34.7883 14.5806L34.561 14.6164L33.9249 14.7164C33.4034 13.6897 32.8243 12.911 32.1873 12.3761C31.5498 11.8373 30.921 11.4743 30.3004 11.2834C30.0417 11.2201 29.7144 11.1639 29.319 11.1183L28.4115 11.1264C28.1695 11.1647 27.9875 11.1932 27.8664 11.2122C27.6543 11.2457 27.4785 11.3117 27.3392 11.4108C26.4814 11.7768 25.7732 12.566 25.2148 13.7817C24.6554 14.994 24.5977 16.9857 25.0408 19.7534C25.5104 22.6861 26.239 24.5696 27.226 25.3999C27.7126 25.8197 28.2292 26.112 28.7763 26.2797C29.3232 26.4477 29.8998 26.4841 30.5058 26.3886C30.7785 26.3457 30.9829 26.3135 31.1191 26.2921L31.6657 26.0674L32.0715 25.838L32.4933 25.5636L31.7462 20.896C31.6661 20.3965 31.4693 20.0388 31.1551 19.8225C30.8457 19.6364 30.3353 19.6012 29.6233 19.7132L29.2369 19.774L29.1325 19.1208L29.3596 19.0848L37.3121 17.8329L37.417 18.4865C36.6897 18.6009 36.2003 18.7933 35.9487 19.064C35.6968 19.3345 35.6137 19.7364 35.6978 20.2625L36.4506 24.9637L36.4506 24.9637ZM46.4099 22.8113C46.4471 23.2508 46.5672 23.5767 46.7702 23.7924C46.969 23.9589 47.1871 24.078 47.424 24.1499L47.705 24.1949L47.9572 24.1741L48.7366 24.1088L48.7927 24.7681L48.5633 24.7872L40.4026 25.4698L40.3465 24.8106L41.1257 24.7453L41.3778 24.7243L41.647 24.6333C41.8256 24.557 42.0083 24.4005 42.1961 24.1637C42.3836 23.9268 42.4589 23.5883 42.421 23.1451L41.3487 10.5361C41.3096 10.0775 41.1863 9.75966 40.9786 9.57843C40.7707 9.39739 40.556 9.27041 40.3344 9.19748L40.0553 9.17508L39.8033 9.19611L39.0239 9.26137L38.9678 8.60229L39.197 8.58303L48.0458 7.84296L49.0373 7.82861C49.4078 7.84355 49.8052 7.90174 50.2298 8.00356C50.9674 8.17064 51.676 8.54293 52.3571 9.12692C53.0374 9.70698 53.4293 10.6053 53.5322 11.8139C53.6208 12.8559 53.435 13.7033 52.9742 14.3486C52.5137 14.9975 51.9739 15.4814 51.3551 15.8079L50.9103 16.0055L50.4615 16.1576L54.9952 22.2307L55.0717 22.316C55.226 22.5015 55.3582 22.6547 55.4688 22.7751C55.5788 22.8954 55.7168 23.0214 55.8811 23.1449C56.1919 23.3631 56.5844 23.4523 57.0583 23.4128L57.1142 24.0719L56.8851 24.0911L52.0251 24.4976L46.6852 17.0915L45.9286 17.1548L46.4099 22.8113L46.4099 22.8113ZM45.836 16.0635L45.9754 16.0747L46.1359 16.0613L46.2735 16.0499L46.411 16.0383C47.6489 15.9347 48.5352 15.5439 49.0706 14.8695C49.6052 14.1916 49.8163 13.1895 49.7033 11.8596L49.6629 11.3858C49.6488 11.2191 49.604 11.0548 49.5291 10.8934C49.3796 10.4062 49.0373 9.95406 48.5094 9.5403C47.9782 9.13046 47.1681 8.96947 46.0755 9.06088L45.6856 9.09331C45.4984 9.10903 45.3531 9.12122 45.2463 9.13007L45.836 16.0635L45.836 16.0635ZM60.4063 9.17861C61.9933 7.52747 64.0827 6.7076 66.6745 6.71881L66.9048 6.7198C69.5885 6.73139 71.6899 7.59962 73.2082 9.32879C74.7268 11.0538 75.4809 13.137 75.4702 15.5744C75.4594 17.9961 74.6872 20.0653 73.1537 21.7772C71.6203 23.4928 69.5114 24.3432 66.8277 24.3315L66.5974 24.3306C63.9134 24.3192 61.8123 23.4507 60.2937 21.7255C58.7753 20.0005 58.0213 17.921 58.032 15.4875C58.0431 12.9477 58.8348 10.8449 60.4063 9.17862V9.17861ZM62.4664 16.7959L62.5984 18.1463C62.7812 19.3638 63.1709 20.5211 63.7796 21.6113C64.3846 22.7052 65.3678 23.2532 66.7288 23.2591C68.059 23.2648 69.0353 22.7364 69.6573 21.6708C70.2831 20.6088 70.6869 19.4473 70.8803 18.1818L71.0242 16.8326L71.03 15.5551L71.032 15.0987C71.0326 14.977 71.033 14.8554 71.0336 14.7337C71.0343 14.5362 71.0351 14.3915 71.0355 14.3005C71.0365 14.0683 71.0298 13.8403 71.0155 13.6123C71.001 13.3837 70.9715 13.1557 70.9265 12.9273C70.7438 11.7098 70.3501 10.5522 69.7338 9.46205C69.1211 8.36817 68.1421 7.82015 66.7964 7.81445C65.4814 7.80875 64.4897 8.35205 63.8215 9.44809C63.2304 10.4645 62.8383 11.6111 62.6446 12.8915L62.4775 14.2635L62.472 15.5184L62.4664 16.7959L62.4664 16.7959ZM86.1304 7.98173L89.722 19.729L95.8702 8.91659L96.0989 8.93841L102.278 9.53144L102.214 10.1901L101.435 10.1152L101.183 10.0911C101.061 10.0795 100.929 10.0934 100.786 10.1331C100.644 10.173 100.467 10.2821 100.257 10.4606C100.047 10.6391 99.9193 10.9628 99.8731 11.4361L98.6439 24.031C98.6005 24.4739 98.6598 24.8157 98.8207 25.0602C98.9861 25.2595 99.1791 25.4156 99.3989 25.5286L99.6671 25.6228L99.9191 25.6471L100.698 25.7218L100.633 26.3801L100.405 26.3583L92.2525 25.576L92.3167 24.9173L93.0955 24.9922L93.3473 25.0164L93.6285 24.9745C93.8174 24.9315 94.026 24.8102 94.2535 24.6105C94.4811 24.411 94.6161 24.0915 94.6589 23.6524L95.8625 11.3221L88.0847 25.176L87.8559 25.1539L87.2375 25.0946L82.5937 9.68225L81.3548 22.3756C81.312 22.8147 81.3711 23.1565 81.5321 23.401C81.6976 23.6002 81.8902 23.7562 82.1105 23.8693L82.3785 23.9636L82.6304 23.9878L83.409 24.0627L83.3446 24.721L83.1158 24.6992L77.5972 24.1694L77.6614 23.5109L78.44 23.5856L78.6917 23.6098L78.9732 23.5681C79.1625 23.5251 79.3706 23.4036 79.5982 23.2041C79.8258 23.0044 79.9611 22.685 80.0042 22.2421L81.2335 9.64706C81.2781 9.18927 81.2143 8.85452 81.0428 8.63928C80.8714 8.42404 80.6831 8.26109 80.4781 8.14983L80.2077 8.07809L79.956 8.05371L79.1776 7.97902L79.2418 7.32073L79.4705 7.34255L86.1304 7.98177L86.1304 7.98173ZM102.66 26.5426L103.43 26.6798L103.679 26.7241L103.963 26.7052C104.155 26.6777 104.372 26.5733 104.616 26.3927C104.859 26.2122 105.019 25.9048 105.099 25.4668L107.357 13.0127C107.439 12.5599 107.403 12.221 107.249 11.9928C107.096 11.7646 106.922 11.5867 106.727 11.4593L106.463 11.3661L106.214 11.3215L105.444 11.1843L105.562 10.5333L105.789 10.5736L113.85 12.0107L113.732 12.6617L112.962 12.5247L112.712 12.4801C112.592 12.4586 112.459 12.462 112.313 12.4901C112.168 12.5184 111.983 12.6127 111.759 12.7737C111.535 12.9347 111.381 13.247 111.297 13.7151L109.039 26.1692C108.959 26.6071 108.99 26.9525 109.131 27.2092C109.279 27.4211 109.458 27.5921 109.669 27.7224L109.928 27.8384L110.177 27.8826L110.947 28.02L110.829 28.671L110.603 28.6305L102.542 27.1937L102.66 26.5426L102.66 26.5426ZM119.393 28.6038C119.27 29.0278 119.265 29.3747 119.377 29.6478C119.503 29.8736 119.664 30.0619 119.86 30.2127L120.106 30.354L120.35 30.4232L121.101 30.6375L120.917 31.2734L120.696 31.2105L112.824 28.9675L113.009 28.3318L113.76 28.546L114.003 28.6152L114.288 28.625C114.482 28.617 114.709 28.5352 114.969 28.3799C115.23 28.225 115.422 27.9353 115.545 27.5076L119.069 15.346C119.198 14.9037 119.196 14.563 119.067 14.3207C118.938 14.0779 118.783 13.8835 118.602 13.7373L118.349 13.6176L118.106 13.5484L117.354 13.3341L117.539 12.6984L117.76 12.7613L126.295 15.1932L127.226 15.5299C127.567 15.6744 127.918 15.8692 128.278 16.1143C128.907 16.5308 129.436 17.1288 129.863 17.9147C130.29 18.6972 130.334 19.6751 129.996 20.8409C129.705 21.8457 129.227 22.5722 128.565 23.0125C127.902 23.4564 127.223 23.7182 126.528 23.8049L126.041 23.8324L125.567 23.8159L127.624 31.0917L127.665 31.1983C127.743 31.4263 127.811 31.616 127.871 31.7673C127.931 31.9189 128.015 32.0852 128.124 32.2587C128.336 32.5724 128.671 32.7944 129.128 32.9245L128.943 33.5604L128.722 33.4973L124.035 32.1616L121.703 23.3559L120.974 23.148L119.393 28.6038V28.6038ZM121.279 22.0954L121.405 22.1551L121.56 22.1994L121.692 22.2369L121.825 22.2747C123.019 22.6149 123.988 22.5628 124.73 22.1213C125.473 21.6767 126.03 20.8146 126.402 19.5318L126.534 19.075C126.581 18.9142 126.598 18.7449 126.586 18.5675C126.621 18.0593 126.463 17.516 126.119 16.943C125.769 16.3726 125.07 15.936 124.016 15.6359L123.64 15.5288C123.46 15.4773 123.32 15.4374 123.216 15.4081L121.279 22.0954L121.279 22.0954ZM1.10275 8.4285C0.313041 8.63449 -0.158727 9.43667 0.0490082 10.2196C0.256745 11.0027 1.06549 11.4705 1.8552 11.2645C12.13 8.55979 22.6537 6.4943 33.3785 5.11344C43.8976 3.75931 54.6521 3.06052 65.6004 3.06052C76.8624 3.06052 87.9255 3.80098 98.7438 5.23452C109.791 6.69853 120.605 8.88353 131.135 11.7402C131.922 11.9525 132.733 11.4925 132.947 10.7126C133.161 9.93259 132.697 9.12805 131.911 8.91556C121.246 6.02273 110.301 3.8106 99.1259 2.32969C88.1359 0.87314 76.9439 0.121094 65.6003 0.121094C54.583 0.121094 43.7034 0.831476 33.0077 2.2084C22.1254 3.60951 11.4747 5.6982 1.10261 8.42847L1.10275 8.4285Z" fill="url(#paint0_linear)"/>
<defs>
<linearGradient id="paint0_linear" x1="66.5013" y1="0.121336" x2="66.5013" y2="49.0353" gradientUnits="userSpaceOnUse">
<stop stop-color="#B0CB1F"/>
<stop offset="1" stop-color="#009846"/>
</linearGradient>
</defs>
</svg>
