<svg width="15" height="15" viewBox="0 0 15 15" fill="none" xmlns="http://www.w3.org/2000/svg">
<g clip-path="url(#clip0)">
<path d="M6.21119 8.78897C4.77947 7.35724 4.45619 5.92552 4.38326 5.3519C4.36288 5.19329 4.41747 5.03423 4.53094 4.92155L5.68956 3.76345C5.85999 3.59312 5.89024 3.32767 5.76249 3.12337L3.91775 0.258883C3.77641 0.0326542 3.48622 -0.048994 3.24766 0.0703485L0.286195 1.46509C0.0932788 1.56008 -0.0201917 1.76505 0.0017118 1.97897C0.156884 3.45311 0.799556 7.0769 4.36076 10.6384C7.92197 14.1998 11.5452 14.8422 13.0202 14.9974C13.2341 15.0193 13.439 14.9058 13.534 14.7129L14.9288 11.7515C15.0477 11.5134 14.9666 11.224 14.7413 11.0824L11.8768 9.23819C11.6726 9.11031 11.4072 9.14034 11.2367 9.31061L10.0786 10.4692C9.96593 10.5827 9.80687 10.6373 9.64826 10.6169C9.07464 10.544 7.64292 10.2207 6.21119 8.78897Z" fill="#3FAD3D"/>
<path d="M11.8972 8.01697C11.6115 8.01697 11.3799 7.7854 11.3799 7.49973C11.3775 5.35825 9.64212 3.62284 7.50064 3.62042C7.21498 3.62042 6.9834 3.38884 6.9834 3.10318C6.9834 2.81751 7.21498 2.58594 7.50064 2.58594C10.2132 2.58893 12.4114 4.78716 12.4144 7.49973C12.4144 7.7854 12.1829 8.01697 11.8972 8.01697Z" fill="#3FAD3D"/>
<path d="M14.4834 8.01724C14.1977 8.01724 13.9662 7.78566 13.9662 7.5C13.9622 3.93085 11.0698 1.03847 7.50064 1.03448C7.21498 1.03448 6.9834 0.802906 6.9834 0.517241C6.9834 0.231577 7.21498 0 7.50064 0C11.6409 0.004561 14.9961 3.35975 15.0006 7.5C15.0006 7.63718 14.9461 7.76874 14.8491 7.86574C14.7521 7.96275 14.6206 8.01724 14.4834 8.01724Z" fill="#3FAD3D"/>
</g>
<defs>
<clipPath id="clip0">
<rect width="15" height="15" fill="white"/>
</clipPath>
</defs>
</svg>
